# xmcd
#
# Track frame offsets:
#	182
#	11600
#	23735
#	33735
#	44987
#	55272
#	66647
#	77785
#	88022
#	100865
#	113642
#	124067
#
# Disc length: 1766 seconds
#
# Revision: 1
# Processed by: cddbd v1.5.1PL2 Copyright (c) Steve Scherf et al.
# Submitted via: audiograbber 1.83.01
#
DISCID=a506e40c
DTITLE=Pete Graves - The Rambler
DYEAR=2001
DGENRE=Country
TTITLE0=Song On The Jukebox
TTITLE1=Pink Elephants
TTITLE2=The Donkey Song
TTITLE3=The Rambler
TTITLE4=Norwegian Girl
TTITLE5=Shadetree Bound
TTITLE6=Memories For A Rainy Day
TTITLE7=Bottle Baby
TTITLE8=High On A Windy Hill
TTITLE9=Queen Of Broken Hearts
TTITLE10=Summer's Lady
TTITLE11=Little Heart Be Good
EXTD=
EXTT0=
EXTT1=
EXTT2=
EXTT3=
EXTT4=
EXTT5=
EXTT6=
EXTT7=
EXTT8=
EXTT9=
EXTT10=
EXTT11=
PLAYORDER=
